<svg xmlns="http://www.w3.org/2000/svg" viewBox="0 0 1024 1024"><rect width="1024" height="1024" fill="#0c0e0f"/><g transform="translate(272.90 215.04) scale(1.00044)"><path fill="#f5f4f3" d="M178.75,212.8h4v-43.9h20.02l45.75,42.82,1.15,1.08,152.08.2c12.35,0,21.5-2.04,27.98-6.24,6.86-4.57,10.32-11.48,10.32-20.56v-14.9c0-7.24-2.17-13.27-6.46-17.91l-.02-.02-.02-.02c-1.58-1.67-3.38-3.1-5.4-4.3,1.75-.99,3.32-2.15,4.69-3.48,4.26-4.13,6.41-9.61,6.41-16.27v-14.2c0-9-2.54-15.8-7.56-20.21-4.9-4.3-12.27-6.39-22.54-6.39h-113.8v118.64l-.41.41-2.26-1.85-45.02-36.8h3.99c10.4,0,17.84-2.09,22.74-6.39,5.02-4.41,7.56-11.2,7.56-20.21v-27.3c0-9-2.54-15.8-7.56-20.21l-.04-.03-.04-.03c-4.96-4.13-12.58-6.23-22.66-6.23h-103.5v124.3h30.6ZM329.95,115.4h67.9c5.21,0,6.88.8,7.36,1.14l.06.04.06.04c.83.55.92,2.33.92,3.07v11c0,.77-.09,2.62-.92,3.17l-.06.04-.06.04c-.48.34-2.14,1.14-7.36,1.14h-67.9v-19.7ZM329.95,162.3h67.9c5.89,0,7.56,1.14,7.84,1.37.8.67,1.26,2.5,1.26,5.03v8.8c0,2.93-.65,4.52-1.26,5.03-.28.23-1.95,1.37-7.84,1.37h-67.9v-21.6ZM182.75,116.6h52.9v.1h4c5.46,0,6.84.91,7.06,1.09.94.78,1.14,2.61,1.14,4.01v14c0,1.99-.38,3.43-1.08,4.06-.39.26-2.05,1.14-7.12,1.14h-56.9v-24.4Z"/><path fill="#f5f4f3" d="M253.05,260.6h-68.5v-17h68v14.25l4.91-1.15,23.9-5.6,3.09-.72v-5.57c0-10.67-2.53-18.37-7.52-22.87-4.94-4.46-13.21-6.63-25.28-6.63h-66c-12.5,0-20.91,2.27-25.69,6.94l-.02.02-.02.02c-4.76,4.76-7.07,12.78-7.07,24.53v12.9c0,11.87,2.32,19.9,7.11,24.56,4.79,4.67,13.19,6.94,25.69,6.94h68.5v18.5h-74.2v-14.72l-4.82,1.01-23.9,5-3.18.67v6.45c0,11.8,2.36,19.84,7.21,24.56,4.79,4.67,13.26,6.94,25.89,6.94h71.9c12.64,0,21.11-2.27,25.89-6.94,4.85-4.73,7.21-12.76,7.21-24.56v-16c0-11.8-2.36-19.84-7.21-24.56-4.79-4.67-13.26-6.94-25.89-6.94Z"/><path fill="#f5f4f3" d="M436.15,215.2h-28.3v65.1c0,1.23.06,2.74.13,4.66l.07,1.79v.07s0,.07,0,.07c.06.8.13,1.8.21,3.03-1.98-1.77-3.95-3.45-5.98-5.12l-81.87-68.58-1.11-.93h-23.95v124.1h32.3v-66.8c0-2.26-.09-4.94-.27-7.97.75.68,1.5,1.35,2.27,2.01l85.43,71.92,1.12.94h23.96v-124.3h-4Z"/><path fill="#c6fb39" d="M85.16,353.4h-9.21v37.9h364.08c-.49,14.12-5.5,26.88-15.19,38.79l-2.24,2.76v.08c-20.3,24.51-44.4,46.02-73.59,65.68-33.16,22.2-69.22,40.24-110.1,55.06-80.9-29.53-143.49-71.09-186.07-123.55-8.98-12.46-14.94-23.41-14.94-36.22V75.84h.11v-34.55c0-1.82,1.47-3.29,3.29-3.29h395.46c1.82,0,3.29,1.47,3.29,3.29v38.61h37.95l-.09-10.09-.3-32.1c-.14-19.62-18.16-37.51-37.8-37.51L41.11,0h0C18.05,0,0,17.66,0,40.2v350.6c0,21.25,6.92,40.93,21.16,60.15l.1.14.11.14c24.4,30.64,54.52,57.84,89.53,80.83,38.29,25.16,80.31,45.52,124.9,60.52l3.21,1.08,3.21-1.09c80.33-27.42,148.05-68.85,195.86-119.82,19.25-20.36,39.81-45.17,39.81-81.64v-37.7H85.16Z"/></g></svg>
